Coordinates
nRows=253
nColumns=2
inDegrees=yes
endheader
time	ankle_angle_r	
2.20819	 -0.335942	
2.24381	 -0.350197	
2.27942	 -0.351081	
2.31504	 -0.353715	
2.35066	 -0.362820	
2.38627	 -0.355770	
2.42189	 -0.332630	
2.4575	 -0.325118	
2.49312	 -0.344414	
2.52874	 -0.364728	
2.56435	 -0.356818	
2.59997	 -0.327149	
2.63558	 -0.311522	
2.6712	 -0.316101	
2.70682	 -0.309500	
2.74243	 -0.281743	
2.77805	 -0.258983	
2.81366	 -0.265217	
2.84928	 -0.289943	
2.8849	 -0.298388	
2.92051	 -0.285635	
2.95613	 -0.284284	
2.99174	 -0.303295	
3.02736	 -0.313007	
3.06298	 -0.295792	
3.09859	 -0.272926	
3.13421	 -0.275567	
3.16982	 -0.298745	
3.20544	 -0.307200	
3.24106	 -0.293372	
3.27667	 -0.283780	
3.31229	 -0.288800	
3.3479	 -0.293654	
3.38352	 -0.286150	
3.41914	 -0.273773	
3.45475	 -0.275333	
3.49037	 -0.290339	
3.52598	 -0.300284	
3.5616	 -0.299438	
3.59722	 -0.296040	
3.63283	 -0.301112	
3.66845	 -0.317735	
3.70406	 -0.332947	
3.73968	 -0.343194	
3.7753	 -0.360318	
3.81091	 -0.376673	
3.84653	 -0.373467	
3.88214	 -0.355129	
3.91776	 -0.341163	
3.95338	 -0.343514	
3.98899	 -0.355013	
4.02461	 -0.354094	
4.06022	 -0.336173	
4.09584	 -0.322633	
4.13146	 -0.327040	
4.16707	 -0.336796	
4.20269	 -0.331625	
4.2383	 -0.313208	
4.27392	 -0.302177	
4.30954	 -0.295923	
4.34515	 -0.272576	
4.38077	 -0.242500	
4.41638	 -0.238100	
4.452	 -0.263506	
4.48762	 -0.291378	
4.52323	 -0.295204	
4.55885	 -0.281547	
4.59446	 -0.280887	
4.63008	 -0.296876	
4.6657	 -0.303822	
4.70131	 -0.291349	
4.73693	 -0.275013	
4.77254	 -0.275562	
4.80816	 -0.290645	
4.84378	 -0.294109	
4.87939	 -0.283113	
4.91501	 -0.286062	
4.95062	 -0.310421	
4.98624	 -0.328298	
5.02186	 -0.315708	
5.05747	 -0.285145	
5.09309	 -0.268404	
5.1287	 -0.267970	
5.16432	 -0.259596	
5.19994	 -0.239975	
5.23555	 -0.231914	
5.27117	 -0.252680	
5.30678	 -0.290129	
5.3424	 -0.308041	
5.37802	 -0.296989	
5.41363	 -0.291131	
5.44925	 -0.303763	
5.48486	 -0.307092	
5.52048	 -0.288469	
5.5561	 -0.271253	
5.59171	 -0.280410	
5.62733	 -0.305398	
5.66294	 -0.314416	
5.69856	 -0.308874	
5.73418	 -0.316817	
5.76979	 -0.339650	
5.80541	 -0.354054	
5.84102	 -0.345501	
5.87664	 -0.323709	
5.91226	 -0.316210	
5.94787	 -0.330111	
5.98349	 -0.340023	
6.0191	 -0.332794	
6.05472	 -0.324999	
6.09034	 -0.333905	
6.12595	 -0.355088	
6.16157	 -0.368563	
6.19718	 -0.370197	
6.2328	 -0.373849	
6.26842	 -0.374366	
6.30403	 -0.353498	
6.33965	 -0.314931	
6.37526	 -0.282125	
6.41088	 -0.275970	
6.4465	 -0.293069	
6.48211	 -0.308279	
6.51773	 -0.312275	
6.55334	 -0.317593	
6.58896	 -0.324141	
6.62458	 -0.318110	
6.66019	 -0.297439	
6.69581	 -0.276763	
6.73142	 -0.270951	
6.76704	 -0.274297	
6.80266	 -0.270983	
6.83827	 -0.263444	
6.87389	 -0.264547	
6.9095	 -0.277337	
6.94512	 -0.293490	
6.98074	 -0.297334	
7.01635	 -0.286995	
7.05197	 -0.284590	
7.08758	 -0.297636	
7.1232	 -0.303781	
7.15882	 -0.292042	
7.19443	 -0.279913	
7.23005	 -0.284839	
7.26566	 -0.296585	
7.30128	 -0.289997	
7.3369	 -0.270005	
7.37251	 -0.268174	
7.40813	 -0.290053	
7.44374	 -0.306967	
7.47936	 -0.295303	
7.51498	 -0.266647	
7.55059	 -0.253699	
7.58621	 -0.262746	
7.62182	 -0.270126	
7.65744	 -0.265275	
7.69306	 -0.260603	
7.72867	 -0.270054	
7.76429	 -0.289736	
7.7999	 -0.298195	
7.83552	 -0.292646	
7.87114	 -0.296365	
7.90675	 -0.310565	
7.94237	 -0.313298	
7.97798	 -0.305996	
8.0136	 -0.308082	
8.04922	 -0.322966	
8.08483	 -0.336036	
8.12045	 -0.335350	
8.15606	 -0.331297	
8.19168	 -0.342754	
8.2273	 -0.366946	
8.26291	 -0.382413	
8.29853	 -0.371407	
8.33414	 -0.342706	
8.36976	 -0.327370	
8.40538	 -0.331024	
8.44099	 -0.327956	
8.47661	 -0.313897	
8.51222	 -0.311074	
8.54784	 -0.327233	
8.58346	 -0.345149	
8.61907	 -0.343376	
8.65469	 -0.323944	
8.6903	 -0.309878	
8.72592	 -0.306724	
8.76154	 -0.300168	
8.79715	 -0.286513	
8.83277	 -0.276411	
8.86838	 -0.281966	
8.904	 -0.296668	
8.93962	 -0.296601	
8.97523	 -0.283909	
9.01085	 -0.286687	
9.04646	 -0.306668	
9.08208	 -0.315474	
9.1177	 -0.295623	
9.15331	 -0.263021	
9.18893	 -0.247368	
9.22454	 -0.252262	
9.26016	 -0.260399	
9.29578	 -0.268439	
9.33139	 -0.283332	
9.36701	 -0.307766	
9.40262	 -0.336000	
9.43824	 -0.348486	
9.47386	 -0.339949	
9.50947	 -0.337229	
9.54509	 -0.353766	
9.5807	 -0.368622	
9.61632	 -0.362775	
9.65194	 -0.342569	
9.68755	 -0.333134	
9.72317	 -0.345494	
9.75878	 -0.358276	
9.7944	 -0.359370	
9.83002	 -0.362282	
9.86563	 -0.366565	
9.90125	 -0.358193	
9.93686	 -0.338088	
9.97248	 -0.322726	
10.0081	 -0.326528	
10.0437	 -0.340354	
10.0793	 -0.343449	
10.1149	 -0.337155	
10.1506	 -0.336785	
10.1862	 -0.348108	
10.2218	 -0.363981	
10.2574	 -0.368199	
10.293	 -0.357826	
10.3286	 -0.351666	
10.3643	 -0.357377	
10.3999	 -0.362095	
10.4355	 -0.356626	
10.4711	 -0.343414	
10.5067	 -0.333364	
10.5423	 -0.333770	
10.578	 -0.337441	
10.6136	 -0.341929	
10.6492	 -0.354536	
10.6848	 -0.366527	
10.7204	 -0.357981	
10.756	 -0.326334	
10.7916	 -0.293186	
10.8273	 -0.283429	
10.8629	 -0.293782	
10.8985	 -0.298862	
10.9341	 -0.291215	
10.9697	 -0.286621	
11.0053	 -0.294771	
11.041	 -0.302252	
11.0766	 -0.290018	
11.1122	 -0.270714	
11.1478	 -0.282918	
11.1834	 -0.335606	
